<svg xmlns="http://www.w3.org/2000/svg" xmlns:xlink="http://www.w3.org/1999/xlink" viewBox="0 0 700 500">
<defs>
<style type="text/css"><![CDATA[
  .borderLine_3651159361 {
	   stroke: none;
	   fill-opacity: 0.4000;
  }
  .outLine_3651159361 {
	   stroke-width: 1.0000;
	   fill: none;
  }
  .circle_3651159361 {
	   stroke: #888888;
	   stroke-width: 0.5;
	   fill: none;
    pointer-events: all;
  }
  .spcircle_3651159361 {
	   stroke: #FF2222;
	   stroke-width: 1;
	   fill: none;
    pointer-events: all;
  }
  .tLabel_3651159361 {
	   font-family: Arial;
    pointer-events: none;
	   font-size: 14px;
	   text-anchor: middle;
	   alignment-baseline: central;
  }
  .nLabel_3651159361 {
	   font-family: Arial;
    pointer-events: none;
	   font-size: 10px;
	   text-anchor: middle;
	   alignment-baseline: central;
  }
  .belong_3651159361 {
	   font-family: Arial;
    pointer-events: none;
	   font-size: 5px;
	   text-anchor: middle;
	   alignment-baseline: central;
  }
  .p0_3651159361{
    stroke: none;
    fill: #e6194b;
  }
  .q0_3651159361{
    fill: none;
    stroke: #e6194b;
  }
  .p1_3651159361{
    stroke: none;
    fill: #3cb44b;
  }
  .q1_3651159361{
    fill: none;
    stroke: #3cb44b;
  }
  .p2_3651159361{
    stroke: none;
    fill: #ffe119;
  }
  .q2_3651159361{
    fill: none;
    stroke: #ffe119;
  }
  .p3_3651159361{
    stroke: none;
    fill: #0082c8;
  }
  .q3_3651159361{
    fill: none;
    stroke: #0082c8;
  }
]]>
</style>
<symbol id="bl0_3651159361">
<path d="M 188.20 120.14  C 180.71 125.99 177.79 129.85 170.85 136.31  C 163.91 142.76 161.05 146.70 153.51 152.43 
 C 145.98 158.16 141.78 161.14 133.17 164.96  C 124.56 168.78 119.54 168.95 110.45 171.53 
 C 101.36 174.11 96.74 175.03 87.72 177.87  C 78.71 180.71 73.59 181.30 65.36 185.74 
 C 57.14 190.17 53.03 193.34 46.60 200.05  C 40.17 206.76 37.25 210.94 33.20 219.29 
 C 29.14 227.65 27.61 232.62 26.31 241.80  C 25.01 250.99 25.14 256.17 26.68 265.22 
 C 28.22 274.27 29.87 278.99 34.00 287.05  C 38.13 295.10 41.09 299.11 47.34 305.50 
 C 53.60 311.89 57.88 314.16 65.29 319.00  C 72.69 323.85 76.79 325.47 84.36 329.72 
 C 91.93 333.97 95.67 336.08 103.13 340.25  C 110.58 344.41 114.27 346.47 121.62 350.52 
 C 128.98 354.58 132.62 356.58 139.88 360.51  C 147.15 364.45 150.75 366.38 157.94 370.20 
 C 165.13 374.03 168.70 375.90 175.82 379.62  C 182.95 383.34 186.49 385.16 193.56 388.81 
 C 200.64 392.46 204.16 394.25 211.20 397.86  C 218.24 401.46 221.41 404.20 228.77 406.86 
 C 236.13 409.51 240.21 410.45 248.01 411.14  C 255.81 411.83 260.01 411.67 267.75 410.31 
 C 275.50 408.95 279.56 407.70 286.74 404.34  C 293.91 400.99 297.54 398.70 303.63 393.54 
 C 309.73 388.37 312.66 385.18 317.21 378.51  C 321.76 371.84 323.77 367.92 326.40 360.20 
 C 329.03 352.47 329.93 348.12 330.37 339.88  C 330.81 331.63 330.39 327.16 328.61 318.97 
 C 326.83 310.78 324.35 307.00 321.48 298.93  C 318.61 290.86 317.10 286.83 314.27 278.62 
 C 311.43 270.42 308.83 266.47 307.30 257.88  C 305.76 249.30 306.09 244.49 306.60 235.69 
 C 307.11 226.89 308.54 222.66 309.85 213.87  C 311.16 205.08 312.25 200.77 313.17 191.75 
 C 314.08 182.74 315.37 177.90 314.43 168.80  C 313.49 159.70 312.18 154.70 308.47 146.24 
 C 304.77 137.78 302.05 133.48 295.91 126.50  C 289.76 119.52 285.79 116.17 277.74 111.36 
 C 269.69 106.55 264.86 104.56 255.64 102.44  C 246.42 100.33 241.10 99.86 231.63 100.77 
 C 222.17 101.69 217.00 103.14 208.32 107.02  C 199.63 110.89 195.69 114.28 188.20 120.14 
 Z" />
</symbol>
<symbol id="bl1_3651159361">
<path d="M 281.20 240.17  C 273.00 245.67 267.61 246.41 258.58 250.55  C 249.56 254.69 245.08 256.75 236.09 260.87 
 C 227.11 264.98 221.84 265.78 213.67 271.13  C 205.49 276.48 201.36 280.00 195.22 287.60 
 C 189.08 295.20 186.37 299.97 182.98 309.12  C 179.59 318.27 178.55 323.59 178.25 333.35 
 C 177.96 343.10 178.65 348.51 181.51 357.90  C 184.37 367.28 186.81 372.27 192.56 380.28 
 C 198.31 388.29 202.24 392.20 210.27 397.95  C 218.31 403.71 223.74 404.61 232.72 409.06 
 C 241.70 413.50 246.18 415.73 255.17 420.17  C 264.16 424.62 268.66 426.84 277.66 431.26 
 C 286.66 435.68 291.16 437.89 300.17 442.28  C 309.19 446.68 313.70 448.86 322.71 453.23 
 C 331.73 457.59 336.24 459.76 345.25 464.12  C 354.26 468.47 358.38 471.57 367.77 474.99 
 C 377.15 478.42 382.28 480.38 392.18 481.23  C 402.07 482.07 407.59 481.63 417.23 479.20 
 C 426.88 476.78 432.04 474.54 440.39 469.10  C 448.74 463.66 452.86 459.88 458.98 452.02 
 C 465.11 444.16 467.78 439.21 471.01 429.80  C 474.24 420.39 474.84 414.93 475.14 404.97 
 C 475.44 395.01 473.56 389.99 472.52 379.99  C 471.48 369.99 470.96 364.99 469.93 354.96 
 C 468.89 344.92 468.38 339.91 467.34 329.84  C 466.31 319.77 465.79 314.72 464.75 304.61 
 C 463.71 294.49 463.19 289.42 462.15 279.26  C 461.11 269.09 460.66 263.98 459.56 253.77 
 C 458.45 243.56 459.19 238.16 456.64 228.21  C 454.10 218.26 452.27 212.76 446.82 204.01 
 C 441.37 195.27 437.47 190.89 429.38 184.49  C 421.30 178.08 416.11 175.29 406.39 171.99 
 C 396.67 168.68 390.97 167.83 380.78 167.96  C 370.59 168.10 364.97 169.17 355.45 172.66 
 C 345.93 176.16 341.02 179.12 333.18 185.46  C 325.35 191.79 323.01 196.83 316.29 204.34 
 C 309.56 211.86 306.59 215.87 299.57 223.04  C 292.55 230.20 289.39 234.66 281.20 240.17 
 Z" />
</symbol>
<symbol id="bl2_3651159361">
<path d="M 234.67 82.78  C 227.64 78.40 224.13 76.24 217.09 71.94  C 210.04 67.64 206.53 65.52 199.44 61.30 
 C 192.36 57.07 188.82 54.99 181.68 50.80  C 174.53 46.61 170.96 44.55 163.73 40.35 
 C 156.51 36.15 153.12 33.71 145.56 29.82  C 138.00 25.93 134.19 23.31 125.92 20.90 
 C 117.66 18.48 113.01 17.73 104.22 17.75  C 95.42 17.77 90.62 18.35 81.95 21.00 
 C 73.28 23.64 68.60 25.71 60.87 30.98  C 53.13 36.26 49.18 39.76 43.27 47.38  C 37.37 55.00 34.61 59.74 31.33 69.08 
 C 28.04 78.41 27.82 83.90 26.85 94.04  C 25.88 104.18 26.63 109.38 26.47 119.78 
 C 26.31 130.18 26.22 135.45 26.04 146.03  C 25.87 156.61 25.78 161.97 25.60 172.69 
 C 25.41 183.41 25.32 188.82 25.13 199.64  C 24.94 210.47 24.85 215.91 24.65 226.79 
 C 24.45 237.67 23.15 243.23 24.13 254.04  C 25.10 264.86 25.55 270.82 29.54 280.86 
 C 33.54 290.90 36.85 296.23 44.11 304.26  C 51.37 312.28 56.32 316.04 65.84 320.99 
 C 75.37 325.95 81.19 327.70 91.73 329.04  C 102.27 330.38 108.27 330.04 118.54 327.71 
 C 128.82 325.38 133.88 322.33 143.09 317.41  C 152.30 312.49 156.06 308.77 164.60 303.10 
 C 173.13 297.43 177.36 294.62 185.75 289.06  C 194.14 283.50 198.08 280.47 206.54 275.30 
 C 215.00 270.12 219.28 267.33 228.04 263.19  C 236.79 259.04 241.49 257.98 250.31 254.58 
 C 259.13 251.17 263.94 250.43 272.15 246.15  C 280.35 241.87 284.64 239.31 291.33 233.17 
 C 298.01 227.02 301.06 223.14 305.59 215.44  C 310.12 207.73 311.89 203.19 313.98 194.66 
 C 316.08 186.13 316.48 181.42 316.09 172.77  C 315.69 164.12 314.79 159.53 312.01 151.41 
 C 309.24 143.28 307.10 139.12 302.22 132.13  C 297.35 125.14 294.12 121.87 287.65 116.46 
 C 281.18 111.05 276.96 109.60 269.88 105.08  C 262.80 100.55 259.28 98.30 252.24 93.84 
 C 245.20 89.38 241.70 87.16 234.67 82.78  Z" />
</symbol>
<symbol id="bl3_3651159361">
<path d="M 412.66 172.78  C 404.69 168.45 400.41 166.97 392.19 163.06  C 383.96 159.14 379.85 157.18 371.54 153.23 
 C 363.23 149.28 359.06 147.30 350.64 143.31  C 342.22 139.32 337.99 137.31 329.45 133.29 
 C 320.91 129.26 316.60 127.23 307.94 123.16  C 299.28 119.09 294.91 117.05 286.15 112.93 
 C 277.38 108.82 273.39 105.49 264.12 102.59  C 254.85 99.68 249.55 98.51 239.79 98.41 
 C 230.02 98.30 224.61 99.11 215.30 102.07  C 205.98 105.02 201.12 107.50 193.22 113.19 
 C 185.33 118.89 181.51 122.74 175.82 130.54  C 170.13 138.35 167.74 143.14 164.76 152.22 
 C 161.78 161.31 160.99 166.52 160.91 175.97  C 160.84 185.41 162.01 190.42 164.39 199.44 
 C 166.77 208.46 169.91 212.27 172.80 221.07  C 175.69 229.86 177.74 234.37 178.85 243.41 
 C 179.96 252.45 178.57 257.16 178.37 266.26  C 178.17 275.36 178.07 279.88 177.86 288.91 
 C 177.65 297.95 177.54 302.44 177.31 311.42  C 177.09 320.40 176.31 324.85 176.74 333.81 
 C 177.17 342.77 177.12 347.60 179.46 356.20  C 181.80 364.80 183.76 369.26 188.44 376.81 
 C 193.12 384.36 196.25 388.06 202.86 393.95  C 209.47 399.84 213.51 402.49 221.49 406.26 
 C 229.47 410.02 234.07 411.42 242.77 412.77  C 251.46 414.12 256.26 414.17 264.97 413.01 
 C 273.67 411.86 278.28 410.56 286.31 407.01  C 294.33 403.46 298.39 400.92 305.10 395.24 
 C 311.81 389.56 314.08 385.38 319.85 378.62  C 325.61 371.87 328.08 368.21 333.91 361.45 
 C 339.75 354.69 342.12 350.49 349.00 344.82  C 355.89 339.15 360.27 337.06 368.36 333.11 
 C 376.44 329.15 380.97 328.28 389.42 325.06  C 397.87 321.83 402.39 320.90 410.62 316.98 
 C 418.84 313.05 423.42 311.12 430.54 305.43  C 437.67 299.74 441.09 296.06 446.24 288.53 
 C 451.40 281.01 453.58 276.49 456.31 267.81  C 459.04 259.13 459.80 254.20 459.88 245.13 
 C 459.97 236.06 459.27 231.14 456.72 222.47  C 454.18 213.80 452.10 209.32 447.17 201.77 
 C 442.24 194.23 438.97 190.54 432.07 184.74  C 425.17 178.94 420.64 177.12 412.66 172.78 
 Z" />
</symbol>
</defs>
<desc>STEP: 7;EVALUATE: 183.581;LASTEVALUATE: 183.68;DT: 0.01;SIMTIME: 4.51501;COUNTER: 1;CANFINISH: 1;CWI: 0</desc>
<desc id='result_3651159361'>F;7;L;-0.977803;-2.05328;-1.44039;-1.62214;-1.90268;-1.1923;-2.44511;-0.858074;-3.05103;
-0.68293;-3.65693;-0.513809;-4.25316;-0.304117;-4.75351;0.0775222;-5.11088;0.590704;
-5.29451;1.19089;-5.28455;1.81536;-5.08939;2.39733;-4.73366;2.8893;-4.25516;3.24941;
-3.74664;3.53509;-3.24619;3.81582;-2.75296;4.08991;-2.26608;4.35629;-1.78466;4.61467;
-1.30784;4.86568;-0.834746;5.11074;-0.364469;5.35197;0.103968;5.59195;0.61702;5.70627;
1.14347;5.6841;1.6497;5.52494;2.10018;5.23677;2.46226;4.83611;2.70733;4.34786;2.81323;
3.80603;2.7662;3.24842;2.57607;2.71417;2.38379;2.17272;2.19791;1.61967;2.17922;1.02788;
2.266;0.446085;2.35445;-0.143624;2.38814;-0.755746;2.22925;-1.35719;1.8942;-1.88362;
1.40979;-2.28736;0.820514;-2.52507;0.18033;-2.56966;-0.441401;-2.40311;L;1.50198;
1.14727;0.899012;1.42422;0.299254;1.69918;-0.298708;1.9729;-0.790626;2.41207;-1.11697;
2.98575;-1.24301;3.6319;-1.15609;4.28645;-0.861506;4.88333;-0.389174;5.35455;0.209241;
5.6506;0.808028;5.94709;1.4076;6.24272;2.008;6.53658;2.60893;6.82844;3.20987;7.1188;
3.81027;7.40883;4.46124;7.57502;5.12935;7.52109;5.74669;7.25173;6.2426;6.79613;6.56323;
6.20373;6.67343;5.54159;6.60349;4.87562;6.53439;4.20807;6.46549;3.53825;6.39637;2.86557;
6.32702;2.18956;6.25783;1.5099;6.18014;0.828408;5.91825;0.183253;5.4533;-0.33737;
4.84028;-0.670717;4.15736;-0.778068;3.48192;-0.652648;2.88815;-0.311558;2.4376;0.192029;
1.99187;0.690524;L;0.261261;-3.04928;-0.207454;-3.33842;-0.67794;-3.62224;-1.15172;
-3.90214;-1.6302;-4.18075;-2.11479;-4.46164;-2.63831;-4.69946;-3.21712;-4.78338;-3.811;
-4.69684;-4.37308;-4.43056;-4.84215;-3.99338;-5.16071;-3.41482;-5.28007;-2.74915;
-5.29024;-2.06278;-5.30158;-1.36281;-5.31354;-0.651996;-5.32588;0.0667504;-5.33878;
0.790648;-5.35275;1.51732;-5.20824;2.23226;-4.81988;2.85618;-4.24039;3.30247;-3.55008;
3.51707;-2.83509;3.48153;-2.18069;3.20686;-1.60718;2.82544;-1.043;2.45096;-0.488749;
2.08397;0.0844394;1.76105;0.678342;1.53148;1.26063;1.30684;1.77204;0.960616;2.15236;
0.487806;2.37624;-0.0661392;2.43228;-0.649918;2.3237;-1.21949;2.06261;-1.73352;1.67404;
-2.15123;1.20014;-2.45479;0.729857;-2.75452;L;5.00747;-0.64948;4.46144;-0.908889;
3.91087;-1.17089;3.35366;-1.43548;2.7885;-1.70267;2.21505;-1.97256;1.63393;-2.24535;
1.04658;-2.52125;0.397831;-2.63265;-0.255222;-2.53514;-0.843893;-2.23851;-1.30781;
-1.77584;-1.60285;-1.19776;-1.70533;-0.564616;-1.61261;0.0613996;-1.38833;0.637919;
-1.22712;1.23365;-1.23991;1.843;-1.25355;2.4471;-1.26801;3.04717;-1.28335;3.64424;
-1.21072;4.24123;-0.971408;4.79077;-0.586862;5.24788;-0.090125;5.57597;0.477298;5.74962;
1.06916;5.75617;1.63817;5.59607;2.13927;5.28228;2.53254;4.83917;2.90764;4.38132;3.31001;
3.93773;3.82601;3.62547;4.38768;3.41082;4.95291;3.19541;5.48414;2.88739;5.90282;2.43692;
6.17124;1.88442;6.26657;1.27955;6.18232;0.675475;5.9276;0.123537;5.52489;-0.330596;
C;4.63346;5.54232;2;2;1;-3.22025;-2.7234;2;4;1;-3.29324;1.47317;2;5;1;4.18669;1.26171;
2;10;1;0.796025;3.69422;2;11;1;0.374589;-0.552836;2;13;1;
S;Set1;POT1;SF3B1;TP53;S;Set2;KRAS;NRAS;TP53;S;Set3;LMNA;POT1;SF3B1;S;Set4;SF3B1;
KRAS;TP53;</desc>
<rect width="700" height="500" style="fill:#fff;stroke-width:0" />
<use class="p0_3651159361 borderLine_3651159361" xlink:href="#bl0_3651159361"/>
<use class="p1_3651159361 borderLine_3651159361" xlink:href="#bl1_3651159361"/>
<use class="p2_3651159361 borderLine_3651159361" xlink:href="#bl2_3651159361"/>
<use class="p3_3651159361 borderLine_3651159361" xlink:href="#bl3_3651159361"/>
<use class="q0_3651159361 outLine" xlink:href="#bl0_3651159361"/>
<use class="q1_3651159361 outLine" xlink:href="#bl1_3651159361"/>
<use class="q2_3651159361 outLine" xlink:href="#bl2_3651159361"/>
<use class="q3_3651159361 outLine" xlink:href="#bl3_3651159361"/>
<circle onclick="fromCircle(2)" class="circle_3651159361" cx="398.6373" cy="404.9942" r="75.0058" />
<text class="nLabel_3651159361" x="398.64" y="399.99">1</text>
<text class="belong_3651159361" x="398.64" y="409.99">(2)</text>
<circle onclick="fromCircle(4)" class="circle_3651159361" cx="104.1000" cy="95.0058" r="75.0058" />
<text class="nLabel_3651159361" x="104.10" y="90.01">1</text>
<text class="belong_3651159361" x="104.10" y="100.01">(3)</text>
<circle onclick="fromCircle(5)" class="circle_3651159361" cx="101.3627" cy="252.3894" r="75.0058" />
<text class="nLabel_3651159361" x="101.36" y="247.39">1</text>
<text class="belong_3651159361" x="101.36" y="257.39">(1, 3)</text>
<circle onclick="fromCircle(10)" class="circle_3651159361" cx="381.8821" cy="244.4590" r="75.0058" />
<text class="nLabel_3651159361" x="381.88" y="239.46">1</text>
<text class="belong_3651159361" x="381.88" y="249.46">(2, 4)</text>
<circle onclick="fromCircle(11)" class="circle_3651159361" cx="254.7222" cy="335.6854" r="75.0058" />
<text class="nLabel_3651159361" x="254.72" y="330.69">1</text>
<text class="belong_3651159361" x="254.72" y="340.69">(1, 2, 4)</text>
<circle onclick="fromCircle(13)" class="circle_3651159361" cx="238.9171" cy="176.4082" r="75.0058" />
<text class="nLabel_3651159361" x="238.92" y="171.41">1</text>
<text class="belong_3651159361" x="238.92" y="181.41">(1, 3, 4)</text>
<rect class="p0_3651159361 borderLine_3651159361" data-nbit="0" x="500.00" y="50.00" width="30.00" height="15.00" />
<rect class="q0_3651159361" x="500.00" y="50.00" width="30.00" height="15.00" />
<text class="legend_3651159361" x="540.00" y="65.00">Set1</text>
<rect class="p1_3651159361 borderLine_3651159361" data-nbit="1" x="500.00" y="90.00" width="30.00" height="15.00" />
<rect class="q1_3651159361" x="500.00" y="90.00" width="30.00" height="15.00" />
<text class="legend_3651159361" x="540.00" y="105.00">Set2</text>
<rect class="p2_3651159361 borderLine_3651159361" data-nbit="2" x="500.00" y="130.00" width="30.00" height="15.00" />
<rect class="q2_3651159361" x="500.00" y="130.00" width="30.00" height="15.00" />
<text class="legend_3651159361" x="540.00" y="145.00">Set3</text>
<rect class="p3_3651159361 borderLine_3651159361" data-nbit="3" x="500.00" y="170.00" width="30.00" height="15.00" />
<rect class="q3_3651159361" x="500.00" y="170.00" width="30.00" height="15.00" />
<text class="legend_3651159361" x="540.00" y="185.00">Set4</text>
</svg>
