<svg xmlns="http://www.w3.org/2000/svg" xmlns:xlink="http://www.w3.org/1999/xlink" viewBox="0 0 700 500">
<defs>
<style type="text/css"><![CDATA[
  .borderLine_677942966 {
	   stroke: none;
	   fill-opacity: 0.4000;
  }
  .outLine_677942966 {
	   stroke-width: 1.0000;
	   fill: none;
  }
  .circle_677942966 {
	   stroke: #888888;
	   stroke-width: 0.5;
	   fill: none;
    pointer-events: all;
  }
  .spcircle_677942966 {
	   stroke: #FF2222;
	   stroke-width: 1;
	   fill: none;
    pointer-events: all;
  }
  .tLabel_677942966 {
	   font-family: Arial;
    pointer-events: none;
	   font-size: 14px;
	   text-anchor: middle;
	   alignment-baseline: central;
  }
  .nLabel_677942966 {
	   font-family: Arial;
    pointer-events: none;
	   font-size: 10px;
	   text-anchor: middle;
	   alignment-baseline: central;
  }
  .belong_677942966 {
	   font-family: Arial;
    pointer-events: none;
	   font-size: 5px;
	   text-anchor: middle;
	   alignment-baseline: central;
  }
  .p0_677942966{
    stroke: none;
    fill: #e6194b;
  }
  .q0_677942966{
    fill: none;
    stroke: #e6194b;
  }
  .p1_677942966{
    stroke: none;
    fill: #3cb44b;
  }
  .q1_677942966{
    fill: none;
    stroke: #3cb44b;
  }
  .p2_677942966{
    stroke: none;
    fill: #ffe119;
  }
  .q2_677942966{
    fill: none;
    stroke: #ffe119;
  }
  .p3_677942966{
    stroke: none;
    fill: #0082c8;
  }
  .q3_677942966{
    fill: none;
    stroke: #0082c8;
  }
  .p4_677942966{
    stroke: none;
    fill: #f58231;
  }
  .q4_677942966{
    fill: none;
    stroke: #f58231;
  }
  .p5_677942966{
    stroke: none;
    fill: #911eb4;
  }
  .q5_677942966{
    fill: none;
    stroke: #911eb4;
  }
  .p6_677942966{
    stroke: none;
    fill: #46f0f0;
  }
  .q6_677942966{
    fill: none;
    stroke: #46f0f0;
  }
  .p7_677942966{
    stroke: none;
    fill: #f032e6;
  }
  .q7_677942966{
    fill: none;
    stroke: #f032e6;
  }
  .p8_677942966{
    stroke: none;
    fill: #d2f53c;
  }
  .q8_677942966{
    fill: none;
    stroke: #d2f53c;
  }
  .p9_677942966{
    stroke: none;
    fill: #fabebe;
  }
  .q9_677942966{
    fill: none;
    stroke: #fabebe;
  }
]]>
</style>
<symbol id="bl0_677942966">
<path d="M 107.64 104.23  C 102.68 107.05 100.19 108.47 95.22 111.31  C 90.25 114.14 87.75 115.57 82.79 118.41 
 C 77.82 121.25 75.33 122.68 70.39 125.51  C 65.45 128.34 62.99 129.76 58.09 132.58 
 C 53.19 135.39 50.64 136.57 45.89 139.57  C 41.14 142.57 38.38 143.79 34.36 147.57 
 C 30.33 151.34 28.49 153.73 25.77 158.46  C 23.05 163.18 21.99 165.93 20.75 171.20 
 C 19.52 176.48 19.26 179.46 19.59 184.82  C 19.91 190.18 20.54 192.99 22.37 198.01 
 C 24.20 203.02 25.57 205.59 28.74 209.89  C 31.91 214.18 33.95 216.25 38.21 219.48 
 C 42.48 222.71 45.04 224.13 50.06 226.03  C 55.08 227.93 57.91 228.61 63.31 228.99 
 C 68.71 229.36 71.74 229.13 77.07 227.92  C 82.39 226.70 84.96 225.27 89.95 222.93 
 C 94.94 220.59 97.17 218.92 102.02 216.21  C 106.87 213.51 109.31 212.15 114.18 209.40 
 C 119.05 206.66 121.50 205.28 126.39 202.50  C 131.27 199.72 133.72 198.32 138.60 195.51 
 C 143.47 192.70 145.91 191.28 150.76 188.45  C 155.60 185.62 158.03 184.20 162.84 181.37 
 C 167.65 178.54 170.10 177.24 174.81 174.31  C 179.52 171.37 182.32 170.33 186.40 166.71 
 C 190.48 163.09 192.37 160.80 195.21 156.21  C 198.05 151.61 199.19 148.93 200.59 143.74 
 C 202.00 138.55 202.36 135.60 202.23 130.25  C 202.10 124.91 201.59 122.09 199.94 117.01 
 C 198.29 111.94 197.02 109.30 193.99 104.88  C 190.96 100.45 188.99 98.28 184.79 94.88 
 C 180.59 91.47 178.07 89.94 173.01 87.85  C 167.94 85.77 165.00 84.97 159.49 84.46 
 C 153.98 83.95 150.90 84.13 145.45 85.28  C 140.00 86.43 137.32 87.82 132.23 90.20 
 C 127.14 92.58 124.91 94.39 119.99 97.19  C 115.07 100.00 112.59 101.41 107.64 104.23 
 Z" />
</symbol>
<symbol id="bl1_677942966">
<path d="M 291.98 138.58  C 296.22 133.51 298.05 130.21 300.25 124.06  C 302.45 117.91 303.02 114.28 302.99 107.83 
 C 302.96 101.37 302.30 97.81 300.10 91.78  C 297.90 85.75 296.06 82.60 292.00 77.69 
 C 287.93 72.78 285.19 70.47 279.76 67.22  C 274.34 63.98 271.01 62.72 264.89 61.46 
 C 258.76 60.19 255.33 60.36 249.13 60.90  C 242.94 61.45 239.99 62.87 233.91 64.19 
 C 227.84 65.51 224.81 66.16 218.77 67.49  C 212.72 68.82 209.70 69.49 203.67 70.86 
 C 197.64 72.23 194.63 72.93 188.60 74.34  C 182.58 75.75 179.57 76.47 173.55 77.93 
 C 167.53 79.38 164.52 80.12 158.48 81.60  C 152.45 83.07 149.30 83.28 143.37 85.30 
 C 137.45 87.32 134.10 88.24 128.87 91.69  C 123.64 95.14 121.03 97.54 117.21 102.55 
 C 113.39 107.56 111.71 110.72 109.75 116.74  C 107.80 122.75 107.27 126.27 107.43 132.62 
 C 107.59 138.97 108.25 142.49 110.55 148.49  C 112.86 154.48 114.72 157.66 118.97 162.58 
 C 123.22 167.49 126.08 169.87 131.81 173.06  C 137.55 176.25 141.09 177.51 147.63 178.53 
 C 154.18 179.55 157.88 178.97 164.52 178.16  C 171.17 177.35 174.32 175.97 180.87 174.49 
 C 187.43 173.01 190.73 172.27 197.32 170.77  C 203.90 169.26 207.21 168.50 213.81 166.96 
 C 220.41 165.42 223.71 164.64 230.30 163.07  C 236.90 161.50 240.19 160.70 246.77 159.11 
 C 253.34 157.52 256.70 157.05 263.17 155.11  C 269.63 153.18 273.33 152.73 279.09 149.43 
 C 284.85 146.12 287.75 143.65 291.98 138.58  Z" />
</symbol>
<symbol id="bl2_677942966">
<path d="M 298.35 71.20  C 292.25 69.29 289.21 68.35 283.16 66.46  C 277.11 64.57 274.24 63.01 268.09 61.74 
 C 261.94 60.47 258.60 59.74 252.40 60.12  C 246.21 60.49 242.86 61.26 237.11 63.62 
 C 231.36 65.99 228.35 67.84 223.66 71.96  C 218.96 76.08 216.73 78.79 213.62 84.22 
 C 210.51 89.65 209.29 92.95 208.11 99.12  C 206.94 105.28 206.85 108.81 207.76 115.04 
 C 208.67 121.26 209.74 124.64 212.65 130.24  C 215.55 135.85 217.69 138.70 222.29 143.05 
 C 226.88 147.40 229.94 149.20 235.64 151.99  C 241.34 154.79 244.72 155.02 250.78 157.02 
 C 256.85 159.02 259.89 160.03 265.98 162.00  C 272.07 163.98 275.12 164.96 281.24 166.89 
 C 287.36 168.82 290.43 169.77 296.58 171.66  C 302.73 173.54 305.82 174.46 312.01 176.30 
 C 318.21 178.14 321.31 179.04 327.55 180.85  C 333.79 182.67 336.75 184.34 343.21 185.37 
 C 349.66 186.39 353.32 186.87 359.83 185.97  C 366.33 185.06 369.88 183.94 375.73 180.83 
 C 381.58 177.72 384.61 175.39 389.06 170.40  C 393.52 165.40 395.56 162.12 398.01 155.86 
 C 400.46 149.60 401.21 145.83 401.31 139.09  C 401.42 132.36 400.80 128.55 398.53 122.19 
 C 396.26 115.83 394.31 112.45 389.97 107.29  C 385.63 102.14 382.63 99.70 376.81 96.41 
 C 370.99 93.11 367.23 92.95 360.85 90.83  C 354.48 88.72 351.26 87.83 344.93 85.84 
 C 338.61 83.85 335.46 82.85 329.22 80.89  C 322.97 78.92 319.87 77.94 313.70 76.01 
 C 307.52 74.07 304.46 73.11 298.35 71.20  Z" />
</symbol>
<symbol id="bl3_677942966">
<path d="M 401.14 114.19  C 396.47 110.63 394.16 108.88 389.63 105.41  C 385.11 101.95 383.24 99.65 378.52 96.86 
 C 373.79 94.08 371.12 92.89 366.00 91.47  C 360.89 90.05 358.08 89.75 352.93 89.76 
 C 347.78 89.77 345.10 90.20 340.26 91.52  C 335.42 92.84 333.00 93.90 328.75 96.37 
 C 324.50 98.84 322.46 100.43 319.01 103.85  C 315.57 107.26 313.99 109.29 311.52 113.44 
 C 309.04 117.58 308.01 119.93 306.64 124.58  C 305.27 129.23 304.84 131.78 304.68 136.67 
 C 304.52 141.56 304.75 144.18 305.85 149.01  C 306.95 153.85 307.84 156.38 310.19 160.84 
 C 312.54 165.30 314.09 167.56 317.59 171.32  C 321.08 175.08 323.52 176.40 327.68 179.63 
 C 331.83 182.85 334.04 184.29 338.35 187.44  C 342.66 190.59 344.84 192.18 349.23 195.38 
 C 353.62 198.59 355.83 200.21 360.30 203.47  C 364.76 206.74 367.01 208.39 371.55 211.70 
 C 376.08 215.02 378.54 216.49 382.96 220.06  C 387.38 223.63 389.35 225.74 393.65 229.56 
 C 397.95 233.38 399.70 235.86 404.47 239.15  C 409.24 242.44 411.97 244.10 417.49 245.99 
 C 423.01 247.88 426.20 248.48 432.08 248.62  C 437.96 248.76 441.20 248.36 446.88 246.70 
 C 452.55 245.04 455.54 243.66 460.47 240.33  C 465.39 236.99 467.83 234.75 471.52 230.03 
 C 475.21 225.31 476.86 222.40 478.92 216.72  C 480.99 211.04 481.66 207.73 481.84 201.63 
 C 482.03 195.53 481.62 192.13 479.85 186.23  C 478.09 180.33 476.60 177.20 473.02 172.13 
 C 469.45 167.05 466.66 165.03 461.97 160.87  C 457.29 156.71 454.55 155.15 449.61 151.35 
 C 444.67 147.54 442.19 145.62 437.28 141.84  C 432.37 138.06 429.90 136.17 425.04 132.44 
 C 420.18 128.71 417.75 126.86 412.97 123.21  C 408.19 119.56 405.81 117.75 401.14 114.19 
 Z" />
</symbol>
<symbol id="bl4_677942966">
<path d="M 460.24 159.10  C 455.04 155.69 451.86 154.24 445.79 152.65  C 439.72 151.07 436.20 150.71 429.90 151.16 
 C 423.59 151.60 420.11 152.41 414.26 154.89  C 408.40 157.36 405.90 159.88 400.60 163.53 
 C 395.30 167.18 392.95 169.35 387.76 173.13  C 382.56 176.91 379.91 178.80 374.63 182.43 
 C 369.35 186.07 366.64 187.76 361.34 191.30  C 356.04 194.84 353.40 196.61 348.13 200.12 
 C 342.86 203.64 340.24 205.40 335.00 208.89  C 329.77 212.38 326.76 213.58 321.96 217.59 
 C 317.16 221.60 314.55 223.83 311.01 228.94  C 307.46 234.04 305.98 237.16 304.24 243.11 
 C 302.50 249.06 302.07 252.49 302.30 258.68  C 302.53 264.88 303.20 268.27 305.38 274.09 
 C 307.57 279.91 309.29 282.94 313.23 287.78  C 317.17 292.63 319.78 294.97 325.09 298.32 
 C 330.40 301.67 333.65 303.07 339.79 304.54  C 345.94 306.02 349.49 306.29 355.81 305.70 
 C 362.13 305.12 365.60 304.21 371.41 301.60  C 377.21 298.99 379.51 296.26 384.84 292.64 
 C 390.18 289.03 392.80 287.16 398.09 283.53  C 403.38 279.89 406.03 278.08 411.29 274.47 
 C 416.55 270.86 419.18 269.06 424.40 265.48  C 429.62 261.90 432.22 260.12 437.39 256.57 
 C 442.57 253.03 445.14 251.27 450.27 247.76  C 455.41 244.25 458.36 243.04 463.05 239.04 
 C 467.75 235.05 470.29 232.83 473.75 227.78  C 477.22 222.73 478.66 219.66 480.37 213.80 
 C 482.08 207.94 482.51 204.59 482.31 198.48  C 482.11 192.38 481.48 189.04 479.37 183.29 
 C 477.27 177.53 475.62 174.54 471.80 169.70  C 467.97 164.86 465.44 162.51 460.24 159.10 
 Z" />
</symbol>
<symbol id="bl5_677942966">
<path d="M 310.80 228.41  C 307.64 232.92 306.47 235.66 304.47 240.83  C 302.47 246.00 302.27 248.87 300.80 254.26 
 C 299.33 259.66 298.59 262.37 297.11 267.81  C 295.63 273.25 294.89 275.99 293.42 281.49 
 C 291.94 286.98 291.21 289.74 289.74 295.29  C 288.28 300.84 287.55 303.63 286.10 309.23 
 C 284.64 314.84 283.92 317.65 282.48 323.30  C 281.04 328.95 280.32 331.79 278.88 337.49 
 C 277.45 343.19 275.87 345.96 275.29 351.79  C 274.72 357.61 274.85 360.85 276.02 366.62 
 C 277.19 372.39 278.30 375.45 281.15 380.64  C 284.00 385.83 285.99 388.43 290.28 392.54 
 C 294.57 396.65 297.26 398.55 302.60 401.19  C 307.94 403.83 311.08 404.82 316.97 405.73 
 C 322.86 406.64 326.16 406.64 332.04 405.74  C 337.92 404.84 341.06 403.85 346.39 401.23 
 C 351.71 398.61 354.39 396.73 358.68 392.65  C 362.96 388.58 364.94 386.00 367.80 380.86 
 C 370.66 375.72 371.18 372.56 372.98 366.96  C 374.78 361.37 375.28 358.49 376.80 352.88 
 C 378.32 347.26 379.09 344.47 380.60 338.89  C 382.12 333.31 382.87 330.53 384.37 324.99 
 C 385.86 319.45 386.60 316.69 388.08 311.18  C 389.55 305.68 390.28 302.93 391.73 297.47 
 C 393.19 292.00 393.90 289.27 395.34 283.84  C 396.79 278.41 397.85 275.80 398.94 270.31 
 C 400.03 264.82 400.84 261.93 400.79 256.38  C 400.74 250.84 400.27 247.86 398.68 242.58 
 C 397.10 237.30 395.83 234.59 392.85 229.98  C 389.87 225.38 387.92 223.13 383.80 219.55 
 C 379.68 215.96 377.19 214.35 372.26 212.04  C 367.32 209.73 364.50 208.87 359.13 208.00 
 C 353.76 207.14 350.80 207.08 345.40 207.73  C 340.00 208.38 337.14 209.13 332.12 211.25 
 C 327.09 213.36 324.54 214.88 320.28 218.31  C 316.01 221.74 313.96 223.91 310.80 228.41 
 Z" />
</symbol>
<symbol id="bl6_677942966">
<path d="M 185.08 370.52  C 182.22 376.57 181.21 380.21 180.54 386.86  C 179.87 393.51 180.14 397.27 181.72 403.76 
 C 183.31 410.24 184.82 413.70 188.48 419.29  C 192.15 424.87 194.72 427.64 200.06 431.68 
 C 205.39 435.72 208.75 437.47 215.14 439.50  C 221.53 441.52 225.30 442.05 232.02 441.81 
 C 238.73 441.57 242.23 440.19 248.73 438.30  C 255.22 436.41 258.18 434.73 264.48 432.36 
 C 270.79 429.98 273.95 428.80 280.25 426.44  C 286.55 424.09 289.70 422.91 295.99 420.58 
 C 302.27 418.24 305.41 417.07 311.65 414.77  C 317.90 412.46 321.01 411.31 327.21 409.03 
 C 333.40 406.76 336.71 406.20 342.62 403.39  C 348.54 400.58 351.83 399.15 356.77 394.99 
 C 361.72 390.83 364.02 388.07 367.33 382.61  C 370.64 377.14 371.93 373.84 373.31 367.66 
 C 374.69 361.49 374.88 357.99 374.24 351.74  C 373.61 345.49 372.70 342.12 370.15 336.41 
 C 367.59 330.70 365.69 327.79 361.47 323.16  C 357.26 318.54 354.54 316.36 349.06 313.28 
 C 343.59 310.20 340.31 308.97 334.09 307.77  C 327.88 306.57 324.34 306.43 318.00 307.28 
 C 311.67 308.12 308.62 309.95 302.43 312.00  C 296.24 314.06 293.23 315.31 287.05 317.55 
 C 280.88 319.78 277.77 320.91 271.54 323.19  C 265.31 325.48 262.18 326.63 255.91 328.96 
 C 249.65 331.29 246.50 332.47 240.22 334.83  C 233.93 337.20 230.78 338.40 224.49 340.78 
 C 218.19 343.17 214.67 343.61 208.75 346.77  C 202.82 349.94 199.59 351.86 194.85 356.61 
 C 190.12 361.36 187.94 364.47 185.08 370.52  Z" />
</symbol>
<symbol id="bl7_677942966">
<path d="M 227.97 340.45  C 222.53 339.54 219.82 339.08 214.40 338.19  C 208.99 337.30 206.29 336.85 200.90 335.98 
 C 195.51 335.11 192.82 334.68 187.45 333.84  C 182.08 332.99 179.41 332.57 174.04 331.75 
 C 168.68 330.93 166.01 330.52 160.65 329.72  C 155.28 328.91 152.61 328.52 147.23 327.72 
 C 141.84 326.92 139.21 326.14 133.74 325.73  C 128.27 325.33 125.34 324.93 119.87 325.68 
 C 114.39 326.43 111.48 327.21 106.35 329.47  C 101.23 331.73 98.60 333.31 94.25 336.97 
 C 89.90 340.63 87.78 342.93 84.59 347.75  C 81.41 352.57 80.01 355.45 78.32 361.07 
 C 76.64 366.69 76.13 369.91 76.17 375.86  C 76.20 381.80 76.68 385.07 78.49 390.79 
 C 80.29 396.51 81.75 399.51 85.19 404.46  C 88.63 409.40 90.94 411.82 95.69 415.51 
 C 100.44 419.20 103.35 420.80 108.94 422.90  C 114.52 425.00 117.79 424.93 123.62 426.01 
 C 129.46 427.08 132.38 427.37 138.12 428.27  C 143.87 429.18 146.72 429.63 152.33 430.53 
 C 157.95 431.42 160.73 431.86 166.22 432.73  C 171.70 433.60 174.41 434.03 179.75 434.87 
 C 185.10 435.71 187.73 436.12 192.95 436.94  C 198.17 437.75 200.74 438.15 205.84 438.94 
 C 210.95 439.74 213.43 440.24 218.48 440.91  C 223.52 441.59 226.06 442.38 231.07 442.30 
 C 236.08 442.22 238.71 441.84 243.52 440.53  C 248.34 439.22 250.79 438.21 255.14 435.74 
 C 259.50 433.26 261.65 431.68 265.28 428.16  C 268.91 424.64 270.64 422.54 273.30 418.15 
 C 275.96 413.77 277.12 411.25 278.60 406.25  C 280.07 401.25 280.55 398.45 280.67 393.15 
 C 280.79 387.85 280.51 384.96 279.21 379.74  C 277.90 374.52 276.84 371.77 274.15 367.03 
 C 271.45 362.29 269.66 359.91 265.75 356.04  C 261.84 352.18 259.44 350.37 254.61 347.71 
 C 249.78 345.05 246.92 344.18 241.59 342.73  C 236.26 341.28 233.41 341.35 227.97 340.45 
 Z" />
</symbol>
<symbol id="bl8_677942966">
<path d="M 83.16 234.24  C 77.71 233.57 74.72 233.59 69.24 234.43  C 63.76 235.27 60.86 236.11 55.78 238.43 
 C 50.69 240.76 48.10 242.38 43.82 246.05  C 39.53 249.72 37.47 252.02 34.34 256.79 
 C 31.22 261.56 29.87 264.38 28.20 269.88  C 26.52 275.38 26.02 278.50 25.98 284.30 
 C 25.93 290.09 26.35 293.25 27.97 298.85  C 29.59 304.45 31.43 307.04 34.07 312.30 
 C 36.71 317.56 38.34 320.00 41.18 325.14  C 44.02 330.28 45.44 332.86 48.26 338.01 
 C 51.09 343.15 52.50 345.73 55.31 350.87  C 58.12 356.00 59.53 358.57 62.31 363.69 
 C 65.10 368.81 66.49 371.36 69.25 376.45  C 72.01 381.54 73.39 384.07 76.11 389.13 
 C 78.83 394.18 79.73 396.97 82.87 401.70  C 86.01 406.44 87.71 408.97 91.81 412.81 
 C 95.90 416.66 98.40 418.39 103.33 420.93  C 108.26 423.48 111.10 424.44 116.47 425.54 
 C 121.84 426.64 124.78 426.81 130.19 426.43  C 135.59 426.06 138.43 425.45 143.49 423.68 
 C 148.55 421.91 151.10 420.59 155.47 417.58  C 159.84 414.58 161.94 412.66 165.35 408.66 
 C 168.76 404.66 170.28 402.29 172.54 397.58  C 174.79 392.86 175.65 390.20 176.62 385.09 
 C 177.58 379.98 177.74 377.19 177.37 372.01  C 177.00 366.84 176.44 364.11 174.76 359.19 
 C 173.08 354.28 171.36 352.11 168.97 347.46  C 166.58 342.81 165.28 340.55 162.80 335.94 
 C 160.32 331.33 159.08 329.03 156.59 324.41  C 154.09 319.79 152.84 317.48 150.32 312.85 
 C 147.80 308.23 146.53 305.91 143.98 301.27  C 141.43 296.63 140.14 294.31 137.56 289.66 
 C 134.97 285.01 133.67 282.68 131.06 278.01  C 128.44 273.33 127.12 271.00 124.48 266.30 
 C 121.83 261.61 121.06 258.84 117.83 254.53  C 114.61 250.22 112.61 248.10 108.35 244.75 
 C 104.08 241.40 101.55 239.90 96.52 237.80  C 91.48 235.69 88.62 234.92 83.16 234.24 
 Z" />
</symbol>
<symbol id="bl9_677942966">
<path d="M 54.13 132.09  C 47.46 133.77 43.91 135.35 38.18 139.17  C 32.46 143.00 29.62 145.68 25.50 151.21 
 C 21.38 156.75 19.61 160.23 17.59 166.85  C 15.56 173.46 15.45 177.33 15.39 184.27 
 C 15.32 191.21 16.51 194.62 17.24 201.53  C 17.97 208.44 18.34 211.90 19.04 218.82 
 C 19.75 225.73 20.10 229.20 20.78 236.11  C 21.46 243.02 21.80 246.48 22.45 253.38 
 C 23.11 260.28 23.42 263.73 24.05 270.61  C 24.68 277.49 24.50 280.95 25.60 287.77 
 C 26.69 294.59 26.89 298.41 29.54 304.71  C 32.19 311.01 34.28 314.25 38.85 319.29 
 C 43.41 324.32 46.43 326.67 52.37 329.90  C 58.30 333.13 61.89 334.34 68.51 335.43 
 C 75.13 336.53 78.89 336.51 85.47 335.40  C 92.05 334.29 95.57 333.05 101.41 329.88 
 C 107.24 326.72 110.16 324.43 114.64 319.57  C 119.12 314.72 121.14 311.62 123.82 305.61 
 C 126.49 299.59 127.41 296.03 128.02 289.50  C 128.63 282.97 127.42 279.53 126.87 272.95 
 C 126.31 266.36 125.89 263.11 125.24 256.56  C 124.60 250.02 124.28 246.75 123.64 240.22 
 C 123.01 233.70 122.70 230.44 122.09 223.93  C 121.47 217.41 121.17 214.16 120.57 207.66 
 C 119.97 201.16 119.68 197.92 119.09 191.43  C 118.50 184.94 118.95 181.61 117.63 175.22 
 C 116.31 168.84 115.50 165.54 112.49 159.52  C 109.48 153.51 107.43 150.00 102.59 145.15 
 C 97.75 140.30 94.51 138.17 88.29 135.29  C 82.07 132.41 78.33 131.39 71.49 130.75 
 C 64.66 130.11 60.79 130.41 54.13 132.09  Z" />
</symbol>
</defs>
<desc>STEP: 7;EVALUATE: 322.276;LASTEVALUATE: 322.482;DT: 0.01;SIMTIME: 4.56501;COUNTER: 1;CANFINISH: 1;CWI: 0</desc>
<desc id='result_677942966'>F;7;L;-6.5621;-6.06158;-7.09407;-5.7585;-7.62652;-5.45432;-8.15721;-5.15018;-8.68431;
-4.84759;-9.20669;-4.54812;-9.70069;-4.20555;-10.0684;-3.73921;-10.2832;-3.1932;-10.3332;
-2.60992;-10.214;-2.04534;-9.94127;-1.53656;-9.53559;-1.12551;-9.02798;-0.845145;
-8.46047;-0.718476;-7.87146;-0.764351;-7.3196;-0.97794;-6.80277;-1.26562;-6.28199;
-1.5572;-5.75913;-1.85292;-5.23629;-2.15238;-4.71544;-2.45453;-4.19815;-2.7578;-3.68539;
-3.06038;-3.18897;-3.38547;-2.81161;-3.83554;-2.58099;-4.36949;-2.51096;-4.94708;
-2.60913;-5.51422;-2.86373;-6.03384;-3.25792;-6.46222;-3.7626;-6.763;-4.34154;-6.90826;
-4.94267;-6.87313;-5.50882;-6.66246;-6.03298;-6.36292;L;1.33301;-4.59045;1.68698;
-5.21247;1.80442;-5.90746;1.68052;-6.59485;1.33354;-7.1983;0.809669;-7.64653;0.172547;
-7.89343;-0.502281;-7.91715;-1.15407;-7.77637;-1.80278;-7.63506;-2.44933;-7.49068;
-3.09456;-7.34177;-3.7393;-7.18815;-4.38456;-7.03096;-5.03166;-6.87229;-5.65286;-6.59876;
-6.15219;-6.13366;-6.47153;-5.52587;-6.57113;-4.84577;-6.43723;-4.16618;-6.07681;
-3.56258;-5.5268;-3.11375;-4.84921;-2.87945;-4.12584;-2.89535;-3.42557;-3.05237;-2.72138;
-3.21185;-2.01511;-3.37486;-1.3086;-3.5416;-0.603519;-3.71129;0.0988569;-3.88229;
0.780807;-4.12594;L;1.60583;-7.47606;0.955216;-7.67913;0.309777;-7.88119;-0.362134;
-7.95079;-1.01695;-7.80069;-1.59333;-7.44381;-2.02303;-6.91851;-2.259;-6.28062;-2.27411;
-5.59878;-2.06476;-4.94745;-1.65202;-4.39906;-1.08025;-4.0159;-0.431469;-3.80065;
0.219316;-3.58728;0.872876;-3.37794;1.52987;-3.17385;2.19085;-2.97496;2.85632;-2.77998;
3.52678;-2.58664;4.23855;-2.56101;4.91962;-2.78094;5.49074;-3.22779;5.87384;-3.85039;
6.01539;-4.56853;5.89628;-5.29247;5.52957;-5.93044;4.96589;-6.39668;4.2825;-6.63536;
3.6007;-6.84914;2.92764;-7.06129;2.26295;-7.27038;L;6.00791;-5.63503;5.51521;-6.01097;
5.03897;-6.37704;4.50312;-6.60808;3.94335;-6.68138;3.4006;-6.60598;2.90779;-6.39816;
2.49066;-6.07792;2.16955;-5.66728;1.96072;-5.19;1.87692;-4.67226;1.92674;-4.14359;
2.1128;-3.63707;2.42958;-3.18821;2.86163;-2.83243;3.31895;-2.49799;3.78478;-2.1576;
4.25876;-1.81111;4.74048;-1.45871;5.22948;-1.10088;5.68711;-0.694079;6.15055;-0.283219;
6.7083;0.00968636;7.3331;0.122314;7.96673;0.0400721;8.54873;-0.232807;9.02231;-0.673778;
9.33925;-1.24387;9.46424;-1.89025;9.37907;-2.54971;9.08656;-3.15369;8.61331;-3.63581;
8.08383;-4.04368;7.55576;-4.45069;7.03158;-4.85342;6.51447;-5.24888;L;8.53912;-3.71158;
7.92025;-3.98766;7.23958;-4.05186;6.56966;-3.89202;5.98493;-3.52182;5.43481;-3.11076;
4.87262;-2.71222;4.30359;-2.33258;3.73767;-1.95464;3.17546;-1.57917;2.61689;-1.20652;
2.14772;-0.720613;1.8578;-0.113466;1.77474;0.553355;1.90694;1.21327;2.24284;1.79958;
2.75081;2.25093;3.3805;2.51746;4.06651;2.56719;4.7345;2.39137;5.31004;2.00772;5.87728;
1.61728;6.44252;1.2294;7.004;0.844494;7.56064;0.463053;8.11225;0.0855411;8.65956;
-0.287766;9.1178;-0.770194;9.40125;-1.36878;9.48422;-2.02493;9.35851;-2.67566;9.03402;
-3.25764;L;2.13899;-0.743069;1.86786;-0.211313;1.71065;0.364048;1.55253;0.944259;
1.39442;1.52991;1.23706;2.12127;1.08091;2.71834;0.925993;3.32088;0.771955;3.92851;
0.618159;4.54075;0.649184;5.17594;0.868935;5.77651;1.25996;6.28631;1.78768;6.65651;
2.40323;6.85115;3.0486;6.85153;3.66299;6.6583;4.18935;6.29108;4.5802;5.78585;4.80209;
5.19076;4.96551;4.58758;5.1284;3.98847;5.28962;3.39324;5.44852;2.80183;5.60503;2.21431;
5.75974;1.6308;5.91372;1.05137;5.99312;0.454796;5.9028;-0.136404;5.65289;-0.675882;
5.2652;-1.12283;4.771;-1.44435;4.20863;-1.61711;3.62082;-1.62872;3.05179;-1.47817;
2.54468;-1.17584;L;-3.24538;5.3431;-3.43985;6.04298;-3.38922;6.76665;-3.09976;7.43177;
-2.60408;7.96247;-1.95802;8.29731;-1.23523;8.39623;-0.519641;8.24602;0.155174;7.99137;
0.830378;7.73822;1.50439;7.4869;2.17536;7.23805;2.84156;6.99247;3.50177;6.75094;4.10789;
6.391;4.55995;5.86072;4.81604;5.22073;4.85601;4.5386;4.68054;3.88223;4.30908;3.31496;
3.77765;2.89174;3.13647;2.65566;2.44737;2.63452;1.78036;2.83694;1.12191;3.0743;0.457362;
3.31622;-0.211837;3.56314;-0.884034;3.81465;-1.55773;4.06954;-2.23181;4.32606;-2.8269;
4.7475;L;-1.40855;4.05507;-1.98956;3.95848;-2.56792;3.86396;-3.14384;3.77198;-3.71808;
3.68264;-4.29184;3.59557;-4.86666;3.51004;-5.44429;3.42503;-6.03847;3.42263;-6.61719;
3.58498;-7.13558;3.9062;-7.54921;4.36803;-7.81768;4.9384;-7.91002;5.5716;-7.81053;
6.21128;-7.52337;6.79648;-7.07397;7.26992;-6.50651;7.58642;-5.87751;7.71948;-5.25648;
7.81653;-4.64793;7.91303;-4.0534;8.00752;-3.47361;8.09909;-2.9083;8.18756;-2.35622;
8.27345;-1.81511;8.3579;-1.27577;8.41731;-0.742555;8.34154;-0.244755;8.13625;0.189478;
7.81163;0.532822;7.38319;0.759672;6.87327;0.848576;6.31221;0.785821;5.73797;0.569019;
5.19363;0.209428;4.72314;-0.267712;4.36617;-0.825347;4.15289;L;-7.61038;-0.49339;
-8.20668;-0.485417;-8.78327;-0.313988;-9.2955;0.0122787;-9.7012;0.47229;-9.96447;
1.03284;-10.0595;1.6503;-9.97431;2.27373;-9.71287;2.84957;-9.40848;3.39958;-9.10511;
3.95065;-8.80319;4.50142;-8.5033;5.05059;-8.20614;5.59706;-7.91249;6.13994;-7.62308;
6.67867;-7.24014;7.15447;-6.74659;7.50212;-6.18397;7.6996;-5.59636;7.73779;-5.02664;
7.61967;-4.5137;7.35869;-4.09045;6.97671;-3.78259;6.50197;-3.60785;5.96707;-3.57572;
5.4071;-3.68733;4.85806;-3.93534;4.35532;-4.19971;3.86224;-4.4657;3.36829;-4.73414;
2.87339;-5.00568;2.37738;-5.28068;1.88001;-5.55918;1.3809;-5.84093;0.8796;-6.1255;
0.375591;-6.5318;-0.0434573;-7.03845;-0.341243;L;-8.85391;-4.86839;-9.53686;-4.56511;
-10.0798;-4.04945;-10.4189;-3.37987;-10.5131;-2.63363;-10.4336;-1.89431;-10.3564;
-1.15403;-10.282;-0.413501;-10.2105;0.32623;-10.1419;1.06406;-10.0758;1.79908;-9.90676;
2.52462;-9.50822;3.14891;-8.92932;3.60326;-8.2378;3.84047;-7.51142;3.83878;-6.82898;
3.6027;-6.2622;3.16104;-5.86917;2.56299;-5.68912;1.87306;-5.73857;1.16422;-5.80823;
0.462502;-5.87663;-0.23724;-5.94332;-0.935259;-6.0082;-1.63178;-6.07159;-2.32698;
-6.13417;-3.02104;-6.35432;-3.69351;-6.77815;-4.30897;-7.39086;-4.73154;-8.11012;
-4.92568;C;-4.53172;-4.89453;2;3;1;-0.235526;-5.8947;2;6;1;3.95568;-4.60145;2;12;
1;7.38537;-1.95698;2;24;1;3.87327;0.476153;2;48;1;2.72715;4.75609;2;96;1;-1.3107;
6.25763;2;192;1;-5.75009;5.56325;2;384;1;-8.3155;-2.73535;2;513;1;-7.87966;1.66987;
2;768;1;
S;a;2;1;S;b;3;2;S;c;4;3;S;d;5;4;S;e;6;5;S;f;7;6;S;g;8;7;S;h;9;8;S;I;10;9;S;j;1;10;
</desc>
<rect width="700" height="500" style="fill:#fff;stroke-width:0" />
<use class="p0_677942966 borderLine_677942966" xlink:href="#bl0_677942966"/>
<use class="p1_677942966 borderLine_677942966" xlink:href="#bl1_677942966"/>
<use class="p2_677942966 borderLine_677942966" xlink:href="#bl2_677942966"/>
<use class="p3_677942966 borderLine_677942966" xlink:href="#bl3_677942966"/>
<use class="p4_677942966 borderLine_677942966" xlink:href="#bl4_677942966"/>
<use class="p5_677942966 borderLine_677942966" xlink:href="#bl5_677942966"/>
<use class="p6_677942966 borderLine_677942966" xlink:href="#bl6_677942966"/>
<use class="p7_677942966 borderLine_677942966" xlink:href="#bl7_677942966"/>
<use class="p8_677942966 borderLine_677942966" xlink:href="#bl8_677942966"/>
<use class="p9_677942966 borderLine_677942966" xlink:href="#bl9_677942966"/>
<use class="q0_677942966 outLine" xlink:href="#bl0_677942966"/>
<use class="q1_677942966 outLine" xlink:href="#bl1_677942966"/>
<use class="q2_677942966 outLine" xlink:href="#bl2_677942966"/>
<use class="q3_677942966 outLine" xlink:href="#bl3_677942966"/>
<use class="q4_677942966 outLine" xlink:href="#bl4_677942966"/>
<use class="q5_677942966 outLine" xlink:href="#bl5_677942966"/>
<use class="q6_677942966 outLine" xlink:href="#bl6_677942966"/>
<use class="q7_677942966 outLine" xlink:href="#bl7_677942966"/>
<use class="q8_677942966 outLine" xlink:href="#bl8_677942966"/>
<use class="q9_677942966 outLine" xlink:href="#bl9_677942966"/>
<circle onclick="fromCircle(3)" class="circle_677942966" cx="155.0467" cy="131.4795" r="46.6985" />
<text class="nLabel_677942966" x="155.05" y="126.48">1</text>
<text class="belong_677942966" x="155.05" y="136.48">(1, 2)</text>
<circle onclick="fromCircle(6)" class="circle_677942966" cx="255.3596" cy="108.1263" r="46.6985" />
<text class="nLabel_677942966" x="255.36" y="103.13">1</text>
<text class="belong_677942966" x="255.36" y="113.13">(2, 3)</text>
<circle onclick="fromCircle(12)" class="circle_677942966" cx="353.2211" cy="138.3226" r="46.6985" />
<text class="nLabel_677942966" x="353.22" y="133.32">1</text>
<text class="belong_677942966" x="353.22" y="143.32">(3, 4)</text>
<circle onclick="fromCircle(24)" class="circle_677942966" cx="433.3015" cy="200.0689" r="46.6985" />
<text class="nLabel_677942966" x="433.30" y="195.07">1</text>
<text class="belong_677942966" x="433.30" y="205.07">(4, 5)</text>
<circle onclick="fromCircle(48)" class="circle_677942966" cx="351.2968" cy="256.8807" r="46.6985" />
<text class="nLabel_677942966" x="351.30" y="251.88">1</text>
<text class="belong_677942966" x="351.30" y="261.88">(5, 6)</text>
<circle onclick="fromCircle(96)" class="circle_677942966" cx="324.5357" cy="356.8140" r="46.6985" />
<text class="nLabel_677942966" x="324.54" y="351.81">1</text>
<text class="belong_677942966" x="324.54" y="361.81">(6, 7)</text>
<circle onclick="fromCircle(192)" class="circle_677942966" cx="230.2551" cy="391.8737" r="46.6985" />
<text class="nLabel_677942966" x="230.26" y="386.87">1</text>
<text class="belong_677942966" x="230.26" y="396.87">(7, 8)</text>
<circle onclick="fromCircle(384)" class="circle_677942966" cx="126.5989" cy="375.6605" r="46.6985" />
<text class="nLabel_677942966" x="126.60" y="370.66">1</text>
<text class="belong_677942966" x="126.60" y="380.66">(8, 9)</text>
<circle onclick="fromCircle(513)" class="circle_677942966" cx="66.6985" cy="181.8945" r="46.6985" />
<text class="nLabel_677942966" x="66.70" y="176.89">1</text>
<text class="belong_677942966" x="66.70" y="186.89">(1, 10)</text>
<circle onclick="fromCircle(768)" class="circle_677942966" cx="76.8749" cy="284.7532" r="46.6985" />
<text class="nLabel_677942966" x="76.87" y="279.75">1</text>
<text class="belong_677942966" x="76.87" y="289.75">(9, 10)</text>
<rect class="p0_677942966 borderLine_677942966" data-nbit="0" x="500.00" y="50.00" width="30.00" height="15.00" />
<rect class="q0_677942966" x="500.00" y="50.00" width="30.00" height="15.00" />
<text class="legend_677942966" x="540.00" y="65.00">a</text>
<rect class="p1_677942966 borderLine_677942966" data-nbit="1" x="500.00" y="90.00" width="30.00" height="15.00" />
<rect class="q1_677942966" x="500.00" y="90.00" width="30.00" height="15.00" />
<text class="legend_677942966" x="540.00" y="105.00">b</text>
<rect class="p2_677942966 borderLine_677942966" data-nbit="2" x="500.00" y="130.00" width="30.00" height="15.00" />
<rect class="q2_677942966" x="500.00" y="130.00" width="30.00" height="15.00" />
<text class="legend_677942966" x="540.00" y="145.00">c</text>
<rect class="p3_677942966 borderLine_677942966" data-nbit="3" x="500.00" y="170.00" width="30.00" height="15.00" />
<rect class="q3_677942966" x="500.00" y="170.00" width="30.00" height="15.00" />
<text class="legend_677942966" x="540.00" y="185.00">d</text>
<rect class="p4_677942966 borderLine_677942966" data-nbit="4" x="500.00" y="210.00" width="30.00" height="15.00" />
<rect class="q4_677942966" x="500.00" y="210.00" width="30.00" height="15.00" />
<text class="legend_677942966" x="540.00" y="225.00">e</text>
<rect class="p5_677942966 borderLine_677942966" data-nbit="5" x="500.00" y="250.00" width="30.00" height="15.00" />
<rect class="q5_677942966" x="500.00" y="250.00" width="30.00" height="15.00" />
<text class="legend_677942966" x="540.00" y="265.00">f</text>
<rect class="p6_677942966 borderLine_677942966" data-nbit="6" x="500.00" y="290.00" width="30.00" height="15.00" />
<rect class="q6_677942966" x="500.00" y="290.00" width="30.00" height="15.00" />
<text class="legend_677942966" x="540.00" y="305.00">g</text>
<rect class="p7_677942966 borderLine_677942966" data-nbit="7" x="500.00" y="330.00" width="30.00" height="15.00" />
<rect class="q7_677942966" x="500.00" y="330.00" width="30.00" height="15.00" />
<text class="legend_677942966" x="540.00" y="345.00">h</text>
<rect class="p8_677942966 borderLine_677942966" data-nbit="8" x="500.00" y="370.00" width="30.00" height="15.00" />
<rect class="q8_677942966" x="500.00" y="370.00" width="30.00" height="15.00" />
<text class="legend_677942966" x="540.00" y="385.00">I</text>
<rect class="p9_677942966 borderLine_677942966" data-nbit="9" x="500.00" y="410.00" width="30.00" height="15.00" />
<rect class="q9_677942966" x="500.00" y="410.00" width="30.00" height="15.00" />
<text class="legend_677942966" x="540.00" y="425.00">j</text>
</svg>
